<svg width="138" height="89" viewBox="0 0 138 89" fill="none" xmlns="http://www.w3.org/2000/svg">
<rect width="138" height="89" rx="14" fill="#831010"/>
<path d="M97.52 65.48C92.2933 65.48 87.7867 64.28 84 61.88C80.2133 59.4267 77.3333 56.04 75.36 51.72C73.3867 47.3467 72.4 42.36 72.4 36.76C72.4 31.1067 73.3867 26.0933 75.36 21.72C77.3867 17.3467 80.2667 13.9333 84 11.48C87.7867 9.02666 92.2933 7.8 97.52 7.8C102.747 7.8 107.227 9.02666 110.96 11.48C114.747 13.88 117.627 17.2667 119.6 21.64C121.627 26.0133 122.64 31.0533 122.64 36.76C122.64 42.4133 121.627 47.4 119.6 51.72C117.627 56.04 114.747 59.4267 110.96 61.88C107.227 64.28 102.747 65.48 97.52 65.48ZM97.52 60.28C101.467 60.28 104.88 59.2933 107.76 57.32C110.693 55.3467 112.933 52.5733 114.48 49C116.08 45.4267 116.88 41.2933 116.88 36.6C116.88 31.96 116.08 27.8533 114.48 24.28C112.933 20.7067 110.693 17.9333 107.76 15.96C104.88 13.9333 101.467 12.92 97.52 12.92C93.5733 12.92 90.1333 13.9333 87.2 15.96C84.32 17.9333 82.08 20.7333 80.48 24.36C78.9333 27.9333 78.16 32.04 78.16 36.68C78.16 41.32 78.9333 45.4267 80.48 49C82.08 52.5733 84.32 55.3467 87.2 57.32C90.1333 59.2933 93.5733 60.28 97.52 60.28Z" fill="#E2DBD4"/>
<path d="M39.88 44.5H43.675L52.86 78.71H53.19L64.52 44.5H68.04L79.315 78.71H79.645L88.885 44.5H92.68L82.23 83H76.895L66.445 50.99H66.115L55.665 83H50.33L39.88 44.5Z" fill="#E2DBD4"/>
<path d="M18.4 9H40.48C44.2667 9 47.3333 9.74666 49.68 11.24C52.08 12.68 53.76 14.4933 54.72 16.68C55.7333 18.8133 56.24 21 56.24 23.24C56.24 25.6933 55.68 27.8267 54.56 29.64C53.4933 31.4 52.2133 32.7867 50.72 33.8C49.2267 34.76 47.84 35.3467 46.56 35.56V35.96C47.9467 36.0667 49.5467 36.5467 51.36 37.4C53.2267 38.2533 54.88 39.6667 56.32 41.64C57.8133 43.56 58.56 46.04 58.56 49.08C58.56 51.6933 57.9467 54.2267 56.72 56.68C55.5467 59.08 53.68 61.08 51.12 62.68C48.6133 64.2267 45.44 65 41.6 65H18.4V9ZM38.88 34.04C42.08 34.04 44.8533 33.16 47.2 31.4C49.6 29.64 50.8 27.0267 50.8 23.56C50.8 20.2 49.68 17.7467 47.44 16.2C45.2 14.6 42.3467 13.8 38.88 13.8H23.76V34.04H38.88ZM40.08 60.2C43.8667 60.2 46.9867 59.3467 49.44 57.64C51.9467 55.88 53.2 53.0533 53.2 49.16C53.2 45.32 51.9467 42.6 49.44 41C46.9867 39.3467 43.8667 38.52 40.08 38.52H23.76V60.2H40.08Z" fill="#E2DBD4"/>
</svg>
