<svg width="743" height="93" viewBox="0 0 743 93" fill="none" xmlns="http://www.w3.org/2000/svg">
<rect width="138" height="89" rx="14" fill="#831010"/>
<path d="M195.36 46.76C199.68 47.5067 203.067 49 205.52 51.24C207.973 53.48 209.2 56.5467 209.2 60.44C209.2 65.1867 207.413 68.8133 203.84 71.32C200.32 73.7733 195.36 75 188.96 75H157.12V71.16H168.48V23.96H157.12V20.12H188.08C193.573 20.12 197.84 21.3733 200.88 23.88C203.973 26.3867 205.52 29.7467 205.52 33.96C205.52 37.1067 204.613 39.8 202.8 42.04C201.04 44.2267 198.56 45.8 195.36 46.76ZM172.96 23.96V45.16H186.96C191.28 45.16 194.693 44.2533 197.2 42.44C199.707 40.5733 200.96 37.8533 200.96 34.28C200.96 30.76 199.733 28.1733 197.28 26.52C194.88 24.8133 191.68 23.96 187.68 23.96H172.96ZM188.24 71.16C193.413 71.16 197.44 70.28 200.32 68.52C203.2 66.76 204.64 63.9867 204.64 60.2C204.64 56.36 203.067 53.5333 199.92 51.72C196.827 49.9067 192.667 48.9467 187.44 48.84H172.96V71.16H188.24ZM239.511 71.24V75H216.391V71.24H225.671V23.88H216.471L216.391 20.12H230.071V71.24H239.511ZM291.986 74.68C290.279 75.5333 288.652 75.96 287.106 75.96C284.919 75.96 283.212 75.2133 281.986 73.72C280.759 72.1733 280.146 69.9867 280.146 67.16V66.36C277.372 69.4533 274.599 71.8533 271.826 73.56C269.052 75.2133 266.119 76.04 263.026 76.04C259.239 76.04 256.279 74.8133 254.146 72.36C252.066 69.9067 251.026 66.3067 251.026 61.56V41.08H242.706V37.32H255.426V61.08C255.426 64.6533 256.119 67.3733 257.506 69.24C258.946 71.0533 261.212 71.96 264.306 71.96C266.866 71.96 269.506 71.16 272.226 69.56C274.946 67.9067 277.586 65.64 280.146 62.76V41.08H272.626V37.32H284.546V67C284.546 68.76 284.839 70.0667 285.426 70.92C286.012 71.72 286.786 72.12 287.746 72.12C288.972 72.12 289.959 71.8267 290.706 71.24L291.986 74.68ZM412.312 23.96H402.552L384.232 76.04H382.472L365.112 31L347.912 76.04H345.992L327.752 23.96H318.152V20.12H343.032V23.96H332.712L347.352 67.16L364.312 21.4H366.392L383.512 67.16L397.752 23.96H386.632V20.12H412.312V23.96ZM412.761 76.04C411.375 76.04 410.175 75.6667 409.161 74.92C408.201 74.12 407.721 73.16 407.721 72.04C407.721 70.8667 408.201 69.88 409.161 69.08C410.175 68.28 411.375 67.88 412.761 67.88C414.308 67.88 415.561 68.28 416.521 69.08C417.535 69.8267 418.041 70.8133 418.041 72.04C418.041 73.16 417.535 74.12 416.521 74.92C415.561 75.6667 414.308 76.04 412.761 76.04ZM478.982 76.04C473.915 76.04 469.302 74.8933 465.142 72.6C460.982 70.2533 457.702 66.92 455.302 62.6C452.902 58.28 451.702 53.2667 451.702 47.56C451.702 41.8 452.902 36.76 455.302 32.44C457.702 28.12 460.982 24.8133 465.142 22.52C469.302 20.1733 473.915 19 478.982 19C484.049 19 488.635 20.1733 492.742 22.52C496.902 24.8133 500.182 28.12 502.582 32.44C505.035 36.76 506.262 41.8 506.262 47.56C506.262 53.2667 505.035 58.28 502.582 62.6C500.182 66.92 496.902 70.2533 492.742 72.6C488.582 74.8933 483.995 76.04 478.982 76.04ZM478.982 72.12C483.249 72.12 487.089 71.1067 490.502 69.08C493.915 67.0533 496.609 64.2 498.582 60.52C500.555 56.7867 501.542 52.4667 501.542 47.56C501.542 42.6533 500.555 38.3333 498.582 34.6C496.609 30.8667 493.915 27.9867 490.502 25.96C487.089 23.9333 483.249 22.92 478.982 22.92C474.662 22.92 470.769 23.9333 467.302 25.96C463.835 27.9867 461.115 30.8667 459.142 34.6C457.222 38.28 456.262 42.6 456.262 47.56C456.262 52.4667 457.222 56.7867 459.142 60.52C461.115 64.2 463.835 67.0533 467.302 69.08C470.769 71.1067 474.662 72.12 478.982 72.12ZM542.069 36.28C545.269 36.28 548.203 37.08 550.869 38.68C553.536 40.2267 555.643 42.4667 557.189 45.4C558.789 48.3333 559.589 51.6933 559.589 55.48C559.589 59.48 558.709 63.0533 556.949 66.2C555.243 69.2933 552.923 71.72 549.989 73.48C547.056 75.1867 543.883 76.04 540.469 76.04C537.696 76.04 535.189 75.5333 532.949 74.52C530.709 73.4533 528.549 71.9867 526.469 70.12V88.68H536.229V92.44H512.949V88.68H522.149V41.08H512.949V37.32H526.469V43.96C528.549 41.6667 530.923 39.8267 533.589 38.44C536.309 37 539.136 36.28 542.069 36.28ZM539.909 72.2C542.683 72.2 545.216 71.5067 547.509 70.12C549.856 68.68 551.696 66.68 553.029 64.12C554.416 61.56 555.109 58.68 555.109 55.48C555.109 52.3867 554.496 49.6933 553.269 47.4C552.096 45.0533 550.469 43.2667 548.389 42.04C546.309 40.76 543.989 40.12 541.429 40.12C538.603 40.12 535.909 40.84 533.349 42.28C530.843 43.6667 528.549 45.56 526.469 47.96V66.44C530.789 70.28 535.269 72.2 539.909 72.2ZM588.417 71.24V75H565.297V71.24H574.577V23.88H565.377L565.297 20.12H578.977V71.24H588.417ZM635.461 74.2C634.128 75.1067 632.501 75.56 630.581 75.56C628.821 75.56 627.355 75 626.181 73.88C625.061 72.76 624.368 71.16 624.101 69.08C618.075 73.72 612.635 76.04 607.781 76.04C603.995 76.04 600.768 75 598.101 72.92C595.488 70.84 594.181 67.9867 594.181 64.36C594.181 61.96 594.875 59.8533 596.261 58.04C597.648 56.1733 599.541 54.7333 601.941 53.72C604.341 52.7067 607.035 52.2 610.021 52.2C612.475 52.2 614.768 52.44 616.901 52.92C619.088 53.3467 621.435 54.0133 623.941 54.92V50.52C623.941 46.8933 622.928 44.28 620.901 42.68C618.928 41.0267 616.341 40.2 613.141 40.2C610.475 40.2 607.888 40.52 605.381 41.16C602.875 41.8 600.235 42.7333 597.461 43.96L596.421 40.28C602.501 37.6133 608.181 36.28 613.461 36.28C617.888 36.28 621.435 37.4533 624.101 39.8C626.821 42.1467 628.181 45.7733 628.181 50.68V66.52C628.181 69.9867 629.275 71.72 631.461 71.72C632.261 71.72 633.248 71.4267 634.421 70.84L635.461 74.2ZM598.581 64.28C598.581 66.7867 599.515 68.7333 601.381 70.12C603.301 71.5067 605.648 72.2 608.421 72.2C613.061 72.2 618.235 70.04 623.941 65.72V58.28C619.195 56.6267 614.608 55.8 610.181 55.8C606.981 55.8 604.235 56.5467 601.941 58.04C599.701 59.5333 598.581 61.6133 598.581 64.28ZM692.489 71.24V75H672.249V71.24H679.849V51.56C679.849 44.0933 676.675 40.36 670.329 40.36C667.609 40.36 664.782 41.24 661.849 43C658.915 44.76 656.035 47.16 653.209 50.2V71.24H660.809V75H639.529V71.24H648.809V41.08H639.529V37.32H653.209V46.44C656.249 43.1867 659.262 40.68 662.249 38.92C665.235 37.16 668.355 36.28 671.609 36.28C675.555 36.28 678.649 37.5333 680.889 40.04C683.129 42.5467 684.249 46.2533 684.249 51.16V71.24H692.489ZM742.488 74.68C741.048 75.5333 739.448 75.96 737.688 75.96C735.821 75.96 734.301 75.4 733.128 74.28C731.954 73.1067 731.234 71.48 730.968 69.4C728.621 71.3733 726.221 72.9733 723.768 74.2C721.314 75.4267 718.621 76.04 715.688 76.04C712.434 76.04 709.448 75.2667 706.728 73.72C704.061 72.12 701.928 69.88 700.328 67C698.728 64.0667 697.928 60.7067 697.928 56.92C697.928 52.8667 698.781 49.2933 700.488 46.2C702.248 43.0533 704.594 40.6267 707.528 38.92C710.461 37.16 713.634 36.28 717.048 36.28C719.768 36.28 722.221 36.7867 724.408 37.8C726.648 38.8133 728.781 40.2 730.808 41.96V23.88H721.528V20.12H735.128V67C735.128 70.3067 736.194 71.96 738.328 71.96C739.714 71.96 740.781 71.6667 741.528 71.08L742.488 74.68ZM702.408 56.84C702.408 59.88 702.994 62.5733 704.168 64.92C705.394 67.2133 707.021 69 709.048 70.28C711.128 71.56 713.448 72.2 716.008 72.2C721.074 72.2 726.008 70.04 730.808 65.72V45.64C726.648 41.96 722.248 40.12 717.608 40.12C714.834 40.12 712.274 40.84 709.928 42.28C707.634 43.72 705.794 45.72 704.408 48.28C703.074 50.7867 702.408 53.64 702.408 56.84Z" fill="#E2DBD4"/>
<path d="M97.52 65.48C92.2933 65.48 87.7867 64.28 84 61.88C80.2133 59.4267 77.3333 56.04 75.36 51.72C73.3867 47.3467 72.4 42.36 72.4 36.76C72.4 31.1067 73.3867 26.0933 75.36 21.72C77.3867 17.3467 80.2667 13.9333 84 11.48C87.7867 9.02666 92.2933 7.8 97.52 7.8C102.747 7.8 107.227 9.02666 110.96 11.48C114.747 13.88 117.627 17.2667 119.6 21.64C121.627 26.0133 122.64 31.0533 122.64 36.76C122.64 42.4133 121.627 47.4 119.6 51.72C117.627 56.04 114.747 59.4267 110.96 61.88C107.227 64.28 102.747 65.48 97.52 65.48ZM97.52 60.28C101.467 60.28 104.88 59.2933 107.76 57.32C110.693 55.3467 112.933 52.5733 114.48 49C116.08 45.4267 116.88 41.2933 116.88 36.6C116.88 31.96 116.08 27.8533 114.48 24.28C112.933 20.7067 110.693 17.9333 107.76 15.96C104.88 13.9333 101.467 12.92 97.52 12.92C93.5733 12.92 90.1333 13.9333 87.2 15.96C84.32 17.9333 82.08 20.7333 80.48 24.36C78.9333 27.9333 78.16 32.04 78.16 36.68C78.16 41.32 78.9333 45.4267 80.48 49C82.08 52.5733 84.32 55.3467 87.2 57.32C90.1333 59.2933 93.5733 60.28 97.52 60.28Z" fill="#E2DBD4"/>
<path d="M39.88 44.5H43.675L52.86 78.71H53.19L64.52 44.5H68.04L79.315 78.71H79.645L88.885 44.5H92.68L82.23 83H76.895L66.445 50.99H66.115L55.665 83H50.33L39.88 44.5Z" fill="#E2DBD4"/>
<path d="M18.4 9H40.48C44.2667 9 47.3333 9.74666 49.68 11.24C52.08 12.68 53.76 14.4933 54.72 16.68C55.7333 18.8133 56.24 21 56.24 23.24C56.24 25.6933 55.68 27.8267 54.56 29.64C53.4933 31.4 52.2133 32.7867 50.72 33.8C49.2267 34.76 47.84 35.3467 46.56 35.56V35.96C47.9467 36.0667 49.5467 36.5467 51.36 37.4C53.2267 38.2533 54.88 39.6667 56.32 41.64C57.8133 43.56 58.56 46.04 58.56 49.08C58.56 51.6933 57.9467 54.2267 56.72 56.68C55.5467 59.08 53.68 61.08 51.12 62.68C48.6133 64.2267 45.44 65 41.6 65H18.4V9ZM38.88 34.04C42.08 34.04 44.8533 33.16 47.2 31.4C49.6 29.64 50.8 27.0267 50.8 23.56C50.8 20.2 49.68 17.7467 47.44 16.2C45.2 14.6 42.3467 13.8 38.88 13.8H23.76V34.04H38.88ZM40.08 60.2C43.8667 60.2 46.9867 59.3467 49.44 57.64C51.9467 55.88 53.2 53.0533 53.2 49.16C53.2 45.32 51.9467 42.6 49.44 41C46.9867 39.3467 43.8667 38.52 40.08 38.52H23.76V60.2H40.08Z" fill="#E2DBD4"/>
</svg>



