<svg width="586" height="74" viewBox="0 0 586 74" fill="none" xmlns="http://www.w3.org/2000/svg">
<path d="M38.36 27.76C42.68 28.5067 46.0667 30 48.52 32.24C50.9733 34.48 52.2 37.5467 52.2 41.44C52.2 46.1867 50.4133 49.8133 46.84 52.32C43.32 54.7733 38.36 56 31.96 56H0.12V52.16H11.48V4.96H0.12V1.12H31.08C36.5733 1.12 40.84 2.37333 43.88 4.88C46.9733 7.38666 48.52 10.7467 48.52 14.96C48.52 18.1067 47.6133 20.8 45.8 23.04C44.04 25.2267 41.56 26.8 38.36 27.76ZM15.96 4.96V26.16H29.96C34.28 26.16 37.6933 25.2533 40.2 23.44C42.7067 21.5733 43.96 18.8533 43.96 15.28C43.96 11.76 42.7333 9.17333 40.28 7.52C37.88 5.81333 34.68 4.96 30.68 4.96H15.96ZM31.24 52.16C36.4133 52.16 40.44 51.28 43.32 49.52C46.2 47.76 47.64 44.9867 47.64 41.2C47.64 37.36 46.0667 34.5333 42.92 32.72C39.8267 30.9067 35.6667 29.9467 30.44 29.84H15.96V52.16H31.24ZM82.5106 52.24V56H59.3906V52.24H68.6706V4.88H59.4706L59.3906 1.12H73.0706V52.24H82.5106ZM134.986 55.68C133.279 56.5333 131.652 56.96 130.106 56.96C127.919 56.96 126.212 56.2133 124.986 54.72C123.759 53.1733 123.146 50.9867 123.146 48.16V47.36C120.372 50.4533 117.599 52.8533 114.826 54.56C112.052 56.2133 109.119 57.04 106.026 57.04C102.239 57.04 99.279 55.8133 97.1456 53.36C95.0656 50.9067 94.0256 47.3067 94.0256 42.56V22.08H85.7056V18.32H98.4256V42.08C98.4256 45.6533 99.119 48.3733 100.506 50.24C101.946 52.0533 104.212 52.96 107.306 52.96C109.866 52.96 112.506 52.16 115.226 50.56C117.946 48.9067 120.586 46.64 123.146 43.76V22.08H115.626V18.32H127.546V48C127.546 49.76 127.839 51.0667 128.426 51.92C129.012 52.72 129.786 53.12 130.746 53.12C131.972 53.12 132.959 52.8267 133.706 52.24L134.986 55.68ZM255.312 4.96H245.552L227.232 57.04H225.472L208.112 12L190.912 57.04H188.992L170.752 4.96H161.152V1.12H186.032V4.96H175.712L190.352 48.16L207.312 2.4H209.392L226.512 48.16L240.752 4.96H229.632V1.12H255.312V4.96ZM255.761 57.04C254.375 57.04 253.175 56.6667 252.161 55.92C251.201 55.12 250.721 54.16 250.721 53.04C250.721 51.8667 251.201 50.88 252.161 50.08C253.175 49.28 254.375 48.88 255.761 48.88C257.308 48.88 258.561 49.28 259.521 50.08C260.535 50.8267 261.041 51.8133 261.041 53.04C261.041 54.16 260.535 55.12 259.521 55.92C258.561 56.6667 257.308 57.04 255.761 57.04ZM321.982 57.04C316.915 57.04 312.302 55.8933 308.142 53.6C303.982 51.2533 300.702 47.92 298.302 43.6C295.902 39.28 294.702 34.2667 294.702 28.56C294.702 22.8 295.902 17.76 298.302 13.44C300.702 9.12 303.982 5.81333 308.142 3.52C312.302 1.17333 316.915 -3.8147e-06 321.982 -3.8147e-06C327.049 -3.8147e-06 331.635 1.17333 335.742 3.52C339.902 5.81333 343.182 9.12 345.582 13.44C348.035 17.76 349.262 22.8 349.262 28.56C349.262 34.2667 348.035 39.28 345.582 43.6C343.182 47.92 339.902 51.2533 335.742 53.6C331.582 55.8933 326.995 57.04 321.982 57.04ZM321.982 53.12C326.249 53.12 330.089 52.1067 333.502 50.08C336.915 48.0533 339.609 45.2 341.582 41.52C343.555 37.7867 344.542 33.4667 344.542 28.56C344.542 23.6533 343.555 19.3333 341.582 15.6C339.609 11.8667 336.915 8.98666 333.502 6.96C330.089 4.93333 326.249 3.92 321.982 3.92C317.662 3.92 313.769 4.93333 310.302 6.96C306.835 8.98666 304.115 11.8667 302.142 15.6C300.222 19.28 299.262 23.6 299.262 28.56C299.262 33.4667 300.222 37.7867 302.142 41.52C304.115 45.2 306.835 48.0533 310.302 50.08C313.769 52.1067 317.662 53.12 321.982 53.12ZM385.069 17.28C388.269 17.28 391.203 18.08 393.869 19.68C396.536 21.2267 398.643 23.4667 400.189 26.4C401.789 29.3333 402.589 32.6933 402.589 36.48C402.589 40.48 401.709 44.0533 399.949 47.2C398.243 50.2933 395.923 52.72 392.989 54.48C390.056 56.1867 386.883 57.04 383.469 57.04C380.696 57.04 378.189 56.5333 375.949 55.52C373.709 54.4533 371.549 52.9867 369.469 51.12V69.68H379.229V73.44H355.949V69.68H365.149V22.08H355.949V18.32H369.469V24.96C371.549 22.6667 373.923 20.8267 376.589 19.44C379.309 18 382.136 17.28 385.069 17.28ZM382.909 53.2C385.683 53.2 388.216 52.5067 390.509 51.12C392.856 49.68 394.696 47.68 396.029 45.12C397.416 42.56 398.109 39.68 398.109 36.48C398.109 33.3867 397.496 30.6933 396.269 28.4C395.096 26.0533 393.469 24.2667 391.389 23.04C389.309 21.76 386.989 21.12 384.429 21.12C381.603 21.12 378.909 21.84 376.349 23.28C373.843 24.6667 371.549 26.56 369.469 28.96V47.44C373.789 51.28 378.269 53.2 382.909 53.2ZM431.417 52.24V56H408.297V52.24H417.577V4.88H408.377L408.297 1.12H421.977V52.24H431.417ZM478.461 55.2C477.128 56.1067 475.501 56.56 473.581 56.56C471.821 56.56 470.355 56 469.181 54.88C468.061 53.76 467.368 52.16 467.101 50.08C461.075 54.72 455.635 57.04 450.781 57.04C446.995 57.04 443.768 56 441.101 53.92C438.488 51.84 437.181 48.9867 437.181 45.36C437.181 42.96 437.875 40.8533 439.261 39.04C440.648 37.1733 442.541 35.7333 444.941 34.72C447.341 33.7067 450.035 33.2 453.021 33.2C455.475 33.2 457.768 33.44 459.901 33.92C462.088 34.3467 464.435 35.0133 466.941 35.92V31.52C466.941 27.8933 465.928 25.28 463.901 23.68C461.928 22.0267 459.341 21.2 456.141 21.2C453.475 21.2 450.888 21.52 448.381 22.16C445.875 22.8 443.235 23.7333 440.461 24.96L439.421 21.28C445.501 18.6133 451.181 17.28 456.461 17.28C460.888 17.28 464.435 18.4533 467.101 20.8C469.821 23.1467 471.181 26.7733 471.181 31.68V47.52C471.181 50.9867 472.275 52.72 474.461 52.72C475.261 52.72 476.248 52.4267 477.421 51.84L478.461 55.2ZM441.581 45.28C441.581 47.7867 442.515 49.7333 444.381 51.12C446.301 52.5067 448.648 53.2 451.421 53.2C456.061 53.2 461.235 51.04 466.941 46.72V39.28C462.195 37.6267 457.608 36.8 453.181 36.8C449.981 36.8 447.235 37.5467 444.941 39.04C442.701 40.5333 441.581 42.6133 441.581 45.28ZM535.489 52.24V56H515.249V52.24H522.849V32.56C522.849 25.0933 519.675 21.36 513.329 21.36C510.609 21.36 507.782 22.24 504.849 24C501.915 25.76 499.035 28.16 496.209 31.2V52.24H503.809V56H482.529V52.24H491.809V22.08H482.529V18.32H496.209V27.44C499.249 24.1867 502.262 21.68 505.249 19.92C508.235 18.16 511.355 17.28 514.609 17.28C518.555 17.28 521.649 18.5333 523.889 21.04C526.129 23.5467 527.249 27.2533 527.249 32.16V52.24H535.489ZM585.488 55.68C584.048 56.5333 582.448 56.96 580.688 56.96C578.821 56.96 577.301 56.4 576.128 55.28C574.954 54.1067 574.234 52.48 573.968 50.4C571.621 52.3733 569.221 53.9733 566.768 55.2C564.314 56.4267 561.621 57.04 558.688 57.04C555.434 57.04 552.448 56.2667 549.728 54.72C547.061 53.12 544.928 50.88 543.328 48C541.728 45.0667 540.928 41.7067 540.928 37.92C540.928 33.8667 541.781 30.2933 543.488 27.2C545.248 24.0533 547.594 21.6267 550.528 19.92C553.461 18.16 556.634 17.28 560.048 17.28C562.768 17.28 565.221 17.7867 567.408 18.8C569.648 19.8133 571.781 21.2 573.808 22.96V4.88H564.528V1.12H578.128V48C578.128 51.3067 579.194 52.96 581.328 52.96C582.714 52.96 583.781 52.6667 584.528 52.08L585.488 55.68ZM545.408 37.84C545.408 40.88 545.994 43.5733 547.168 45.92C548.394 48.2133 550.021 50 552.048 51.28C554.128 52.56 556.448 53.2 559.008 53.2C564.074 53.2 569.008 51.04 573.808 46.72V26.64C569.648 22.96 565.248 21.12 560.608 21.12C557.834 21.12 555.274 21.84 552.928 23.28C550.634 24.72 548.794 26.72 547.408 29.28C546.074 31.7867 545.408 34.64 545.408 37.84Z" fill="#E2DBD4"/>
</svg>
