<svg width="614" height="514" viewBox="0 0 614 514" fill="none" xmlns="http://www.w3.org/2000/svg">
<path d="M456.5 361C423.833 361 395.667 353.5 372 338.5C348.333 323.167 330.333 302 318 275C305.667 247.667 299.5 216.5 299.5 181.5C299.5 146.167 305.667 114.833 318 87.5C330.667 60.1667 348.667 38.8333 372 23.5C395.667 8.16665 423.833 0.499983 456.5 0.499983C489.167 0.499983 517.167 8.16665 540.5 23.5C564.167 38.5 582.167 59.6667 594.5 87C607.167 114.333 613.5 145.833 613.5 181.5C613.5 216.833 607.167 248 594.5 275C582.167 302 564.167 323.167 540.5 338.5C517.167 353.5 489.167 361 456.5 361ZM456.5 328.5C481.167 328.5 502.5 322.333 520.5 310C538.833 297.667 552.833 280.333 562.5 258C572.5 235.667 577.5 209.833 577.5 180.5C577.5 151.5 572.5 125.833 562.5 103.5C552.833 81.1667 538.833 63.8333 520.5 51.5C502.5 38.8333 481.167 32.5 456.5 32.5C431.833 32.5 410.333 38.8333 392 51.5C374 63.8333 360 81.3333 350 104C340.333 126.333 335.5 152 335.5 181C335.5 210 340.333 235.667 350 258C360 280.333 374 297.667 392 310C410.333 322.333 431.833 328.5 456.5 328.5Z" fill="#E2DBD4"/>
<path d="M117.6 269H141.75L200.2 486.7H202.3L274.4 269H296.8L368.55 486.7H370.65L429.45 269H453.6L387.1 514H353.15L286.65 310.3H284.55L218.05 514H184.1L117.6 269Z" fill="#E2DBD4"/>
<path d="M2.83122e-06 7.99998H138C161.667 7.99998 180.833 12.6666 195.5 22C210.5 31 221 42.3333 227 56C233.333 69.3333 236.5 83 236.5 97C236.5 112.333 233 125.667 226 137C219.333 148 211.333 156.667 202 163C192.667 169 184 172.667 176 174V176.5C184.667 177.167 194.667 180.167 206 185.5C217.667 190.833 228 199.667 237 212C246.333 224 251 239.5 251 258.5C251 274.833 247.167 290.667 239.5 306C232.167 321 220.5 333.5 204.5 343.5C188.833 353.167 169 358 145 358H2.83122e-06V7.99998ZM128 164.5C148 164.5 165.333 159 180 148C195 137 202.5 120.667 202.5 99C202.5 78 195.5 62.6667 181.5 53C167.5 43 149.667 38 128 38H33.5V164.5H128ZM135.5 328C159.167 328 178.667 322.667 194 312C209.667 301 217.5 283.333 217.5 259C217.5 235 209.667 218 194 208C178.667 197.667 159.167 192.5 135.5 192.5H33.5V328H135.5Z" fill="#E2DBD4"/>
</svg>
